<?xml version="1.0" standalone="no"?>
<!DOCTYPE svg PUBLIC "-//W3C//DTD SVG 20010904//EN"
 "http://www.w3.org/TR/2001/REC-SVG-20010904/DTD/svg10.dtd">
<svg version="1.0" xmlns="http://www.w3.org/2000/svg"
 width="700.000000pt" height="700.000000pt" viewBox="0 0 700.000000 700.000000"
 preserveAspectRatio="xMidYMid meet">
<metadata>
Created by potrace 1.14, written by Peter Selinger 2001-2017
</metadata>
<g transform="translate(0.000000,700.000000) scale(0.100000,-0.100000)"
fill="#000000" stroke="none">
<path d="M3278 6995 c-1 -1 -42 -5 -89 -9 -47 -4 -95 -8 -105 -10 -10 -2 -41
-7 -69 -10 -428 -56 -875 -210 -1270 -439 -103 -60 -265 -165 -315 -204 -8 -6
-51 -40 -95 -74 -353 -275 -673 -651 -897 -1054 -49 -87 -148 -289 -148 -301
0 -2 -9 -23 -20 -47 -57 -123 -157 -435 -186 -582 -2 -11 -10 -54 -19 -95 -29
-147 -36 -200 -52 -370 -15 -165 -8 -592 12 -711 2 -13 6 -46 9 -74 9 -78 22
-152 51 -285 21 -96 91 -339 114 -395 5 -11 25 -65 46 -120 63 -166 249 -531
312 -610 4 -6 34 -49 65 -95 170 -255 433 -535 708 -755 92 -74 370 -265 386
-265 4 0 15 -6 23 -14 26 -22 298 -158 411 -205 267 -111 589 -200 859 -237
25 -3 57 -8 71 -10 163 -25 682 -25 842 1 13 2 46 7 73 10 71 10 87 13 115 18
14 3 43 8 65 12 22 4 76 16 120 27 44 10 87 21 96 23 25 5 157 45 219 65 178
57 568 235 660 300 15 11 33 20 39 20 6 0 11 5 11 10 0 6 5 10 10 10 15 0 220
141 330 227 152 118 324 280 450 422 36 41 70 79 76 85 6 6 48 61 94 121 150
197 277 405 383 628 26 53 47 99 47 102 0 2 11 28 24 57 57 127 151 421 182
573 17 81 54 301 59 350 4 33 9 71 11 85 9 47 11 525 3 605 -15 165 -21 220
-24 225 -2 3 -6 30 -10 60 -9 75 -69 337 -99 435 -174 571 -466 1062 -881
1478 -384 385 -846 672 -1360 845 -168 57 -420 119 -555 137 -19 3 -46 7 -60
10 -13 2 -52 7 -86 11 -33 3 -74 8 -90 10 -32 5 -540 14 -546 9z m456 -1761
c528 -74 985 -374 1264 -831 66 -107 164 -326 178 -397 2 -10 10 -42 18 -70
14 -49 26 -113 43 -221 10 -63 9 -362 -1 -435 -32 -240 -126 -509 -237 -680
-16 -25 -32 -52 -36 -60 -36 -76 -238 -299 -361 -399 -119 -97 -344 -230 -432
-256 -14 -4 -29 -11 -35 -15 -32 -24 -257 -82 -410 -107 -133 -21 -461 -4
-610 30 -214 50 -421 140 -590 256 -111 76 -158 114 -251 206 -289 285 -453
618 -511 1035 -10 70 -10 370 0 435 42 268 116 477 241 680 186 303 473 558
776 689 36 15 79 34 95 41 84 37 292 88 410 101 33 3 61 7 63 9 9 9 304 0 386
-11z"/>
<path d="M3440 4373 c-237 -26 -422 -113 -572 -270 -325 -343 -323 -868 6
-1211 192 -201 484 -299 758 -256 545 86 875 641 690 1159 -117 331 -432 564
-782 578 -41 1 -86 1 -100 0z m158 -447 c5 -3 21 -7 35 -10 39 -7 126 -59 168
-100 247 -242 134 -662 -199 -740 -161 -37 -324 16 -440 144 -27 30 -78 134
-87 175 -60 293 154 553 447 540 37 -2 71 -6 76 -9z"/>
</g>
</svg>
