<?xml version="1.0" standalone="no"?>
<!DOCTYPE svg PUBLIC "-//W3C//DTD SVG 20010904//EN"
 "http://www.w3.org/TR/2001/REC-SVG-20010904/DTD/svg10.dtd">
<svg version="1.0" xmlns="http://www.w3.org/2000/svg"
 width="700.000000pt" height="700.000000pt" viewBox="0 0 700.000000 700.000000"
 preserveAspectRatio="xMidYMid meet">
<metadata>
Created by potrace 1.14, written by Peter Selinger 2001-2017
</metadata>
<g transform="translate(0.000000,700.000000) scale(0.100000,-0.100000)"
fill="#000000" stroke="none">
<path d="M3493 5728 c-5 -7 -25 -40 -44 -73 -19 -33 -39 -69 -46 -80 -7 -11
-15 -26 -19 -34 -4 -7 -28 -50 -54 -95 -26 -44 -165 -286 -310 -536 -145 -250
-288 -498 -318 -550 -31 -52 -63 -108 -72 -125 -9 -16 -23 -41 -31 -55 -35
-55 -239 -412 -239 -418 0 -3 -6 -13 -14 -21 -7 -9 -28 -43 -46 -76 -18 -33
-172 -300 -342 -593 -169 -294 -308 -536 -308 -538 0 -3 -9 -17 -19 -32 -15
-21 -321 -550 -459 -793 -11 -19 -58 -101 -106 -182 -47 -82 -86 -151 -86
-153 0 -2 -12 -23 -27 -47 -15 -23 -32 -51 -38 -62 -6 -11 -67 -117 -136 -235
-68 -118 -131 -227 -139 -242 -8 -16 -39 -70 -69 -120 -30 -51 -62 -106 -71
-123 -10 -16 -27 -47 -40 -67 -12 -21 -18 -38 -13 -39 38 -4 6097 -3 6104 1 8
5 -9 37 -106 200 -18 30 -44 75 -58 100 -68 122 -281 490 -303 522 -13 21 -24
40 -24 43 0 3 -40 74 -89 158 -49 84 -98 168 -109 187 -10 19 -51 89 -89 155
-39 66 -81 140 -95 165 -14 25 -67 117 -118 205 -51 88 -101 174 -110 190 -10
17 -68 117 -129 223 -61 106 -121 209 -132 230 -12 20 -43 74 -70 118 -27 45
-49 87 -49 93 0 6 -4 11 -10 11 -5 0 -10 4 -10 9 0 6 -29 60 -65 121 -36 61
-76 130 -89 153 -27 48 -56 98 -191 332 -54 94 -106 185 -117 203 -30 53 -45
79 -313 542 -454 786 -482 834 -504 870 -11 19 -24 41 -28 49 -3 8 -51 91
-106 185 -55 94 -107 186 -117 204 -13 24 -20 29 -27 20z"/>
</g>
</svg>
