<?xml version="1.0" encoding="UTF-8" standalone="no"?>
<!-- Created with Inkscape (http://www.inkscape.org/) -->

<svg
   width="210mm"
   height="297mm"
   viewBox="0 0 210 297"
   version="1.1"
   id="svg5"
   inkscape:version="1.1.2 (b8e25be8, 2022-02-05)"
   sodipodi:docname="m-logo.svg"
   xmlns:inkscape="http://www.inkscape.org/namespaces/inkscape"
   xmlns:sodipodi="http://sodipodi.sourceforge.net/DTD/sodipodi-0.dtd"
   xmlns="http://www.w3.org/2000/svg"
   xmlns:svg="http://www.w3.org/2000/svg">
  <sodipodi:namedview
     id="namedview7"
     pagecolor="#ffffff"
     bordercolor="#666666"
     borderopacity="1.0"
     inkscape:pageshadow="2"
     inkscape:pageopacity="0.0"
     inkscape:pagecheckerboard="0"
     inkscape:document-units="mm"
     showgrid="false"
     inkscape:zoom="0.64052329"
     inkscape:cx="400.45382"
     inkscape:cy="595.60676"
     inkscape:window-width="1312"
     inkscape:window-height="969"
     inkscape:window-x="0"
     inkscape:window-y="25"
     inkscape:window-maximized="0"
     inkscape:current-layer="layer1" />
  <defs
     id="defs2" />
  <g
     inkscape:label="Layer 1"
     inkscape:groupmode="layer"
     id="layer1">
    <path
       style="fill:#000000;fill-opacity:1;fill-rule:nonzero;stroke:none;stroke-width:0.264583"
       id="path74"
       d="m 22.997325,213.50545 c 0.58255,-1.42806 1.618798,-3.93766 1.986528,-5.07771 0.724677,-2.24669 1.272268,-4.54744 1.977032,-6.80045 0.929992,-2.97302 1.950982,-5.91679 2.926474,-8.87519 1.083824,-3.34904 2.202413,-6.68702 3.251468,-10.04711 1.076991,-3.44957 2.084228,-6.92052 3.126343,-10.38078 3.681944,-12.42677 7.325759,-24.86581 10.846022,-37.33942 1.013365,-4.26159 1.749258,-8.58287 2.759559,-12.84549 0.685453,-2.76819 1.389076,-5.53073 2.070111,-8.29997 0.208422,-0.8475 0.459896,-1.68501 0.636619,-2.53969 0.334044,-1.61552 0.558895,-3.63204 0.767053,-5.26491 0.376799,-1.86995 0.370443,-3.83433 0.975217,-5.6596 0.06876,-0.20754 0.49384,-0.682386 0.298617,-0.583966 -17.854948,9.001376 -18.907373,2.823676 -17.351205,10.080316 1.024868,8.19052 1.756322,16.41578 2.650987,24.62186 0.849336,8.05583 2.286513,16.06813 4.875554,23.75771 1.221647,3.62835 2.48377,6.60023 3.915068,10.1369 1.852909,4.12691 3.508656,8.36239 5.573959,12.39264 1.428075,2.78675 3.034302,5.33276 4.56501,8.06365 0.714687,1.27505 1.391285,2.57108 2.086924,3.85662 2.410709,4.2339 4.509815,8.63939 6.945887,12.85899 4.532045,5.87709 1.323229,2.13107 18.198528,-8.98024 0.669518,-0.44083 0.193884,-1.60013 0.430662,-2.36598 0.509961,-1.64944 1.125742,-3.26733 1.802104,-4.8558 2.405848,-5.65027 5.118664,-10.72719 7.908623,-16.22603 7.321541,-13.84929 15.259641,-27.35965 23.795601,-40.49455 3.50888,-5.39937 6.47099,-9.66587 10.06768,-14.91901 3.10862,-4.39239 6.08231,-8.87718 9.15126,-13.29691 0.0905,-0.13038 2.31323,-3.46252 2.95981,-3.92692 0.17991,-0.12923 0.44055,0.0467 0.66082,0.0701 -6.15414,3.06297 -12.61757,5.57049 -18.46243,9.1889 -0.77265,0.47833 -0.50081,1.75076 -0.65513,2.64629 -0.25913,1.50373 -0.40857,3.0245 -0.58332,4.54036 -0.64629,5.60618 -0.88805,7.94542 -1.00047,13.86849 -0.0581,3.06346 0.0247,6.12796 0.037,9.19194 0.91035,11.55841 2.92484,23.00069 5.35143,34.32723 0.77741,3.62873 1.58728,7.25226 2.51785,10.84476 2.06565,7.97458 2.98503,10.20327 5.57007,17.70549 2.10849,5.51552 4.78401,10.77054 7.53844,15.98086 0,0 14.66341,-8.57793 14.66341,-8.57793 v 0 c -0.94281,-1.1755 -1.93362,-2.31406 -2.82844,-3.52649 -3.48207,-4.71796 -3.72335,-5.51648 -6.82793,-10.89254 -1.19415,-2.51587 -2.50842,-4.97816 -3.58244,-7.54762 -5.68254,-13.5948 -9.15059,-28.58967 -10.01902,-43.29271 -0.22061,-3.735 -0.0581,-7.48279 -0.0872,-11.22418 0.26253,-3.16404 0.39472,-6.34162 0.7876,-9.49213 0.50453,-4.04583 1.77705,-10.5162 2.99714,-14.60351 0.49662,-1.66367 1.12737,-3.28676 1.79336,-4.89015 0.42201,-1.01599 2.54534,-3.17023 1.46606,-2.95697 -5.9516,1.17598 -11.44137,4.03891 -17.16205,6.05837 0.1346,0.0874 0.39688,0.10195 0.40379,0.2623 0.0158,0.36773 -0.19531,0.71295 -0.34736,1.04814 -0.34768,0.76646 -0.75731,1.50338 -1.14818,2.24875 -2.16465,4.12791 -4.47274,8.17829 -6.77671,12.22929 -10.52774,18.33273 -21.228513,36.56454 -32.08198,54.70648 -2.83804,4.70124 -7.610793,12.67617 -10.668508,17.49976 -1.250527,1.97272 -2.521921,3.93318 -3.848063,5.85589 -0.571915,0.82918 -2.77382,2.77942 -1.842786,2.39496 21.002241,-8.67258 23.021618,-8.61777 16.375742,-8.57801 -0.256153,-0.19202 -0.53934,-0.35248 -0.768463,-0.57607 -0.529871,-0.51706 -2.007497,-2.3762 -2.353326,-2.8342 -1.96046,-2.59633 -3.79748,-5.29125 -5.579893,-8.01122 -0.758754,-1.24088 -1.552724,-2.46091 -2.276264,-3.72265 -2.063498,-3.59841 -2.372495,-4.50497 -4.224536,-8.15918 -2.025843,-3.99715 -4.218397,-7.90859 -6.13575,-11.96091 -1.668595,-3.78136 -2.700018,-5.93421 -4.094528,-9.85809 -2.667627,-7.50619 -4.38812,-15.30951 -5.083294,-23.24746 -0.126159,-2.11986 -0.300614,-4.2374 -0.378479,-6.35958 -0.24276,-6.61653 0.189913,-13.21931 0.926794,-19.79206 0.818874,-7.671816 0.555124,-1.965728 -17.48308,7.40128 -0.142335,0.0739 0.124672,0.29905 0.148532,0.45764 0.143923,0.95668 0.08305,1.96941 0.02706,2.92164 -0.04424,0.7524 -0.119661,1.50266 -0.179494,2.25399 -0.790133,5.38032 -1.985147,10.69506 -3.548885,15.90493 -0.651904,2.33961 -1.412399,4.67122 -1.881063,7.05742 -0.313227,1.59481 -0.310592,2.05636 -0.47843,3.66961 -0.07531,0.72388 -0.155186,1.44728 -0.232781,2.17092 -0.314346,3.7377 -0.661747,7.47615 -1.203193,11.18935 -1.165232,7.99109 -2.835624,15.9026 -4.927089,23.70236 -3.000514,9.74871 -3.197027,11.13822 -7.05687,20.64042 -2.9678,7.30616 -6.24711,14.70646 -11.124915,20.97584 -0.4991608,0.64156 -1.1127044,1.1853 -1.6690567,1.77796 0,0 18.1388567,-7.67704 18.1388567,-7.67704 z" />
  </g>
</svg>
