<svg xmlns="http://www.w3.org/2000/svg" width="60" height="60" fill="url(#grad1)" class="bi bi-vinyl-fill" viewBox="0 0 16 16">
<defs>
<linearGradient id="grad1" x1="0%" y1="0%" x2="0%" y2="100%">
            <stop offset="0%" style="stop-color:rgb(216,9,126);stop-opacity:1" />
            <stop offset="100%" style="stop-color:rgb(36,70,142);stop-opacity:1" />
        </linearGradient>
        </defs>
  <path d="M8 6a2 2 0 1 0 0 4 2 2 0 0 0 0-4zm0 3a1 1 0 1 1 0-2 1 1 0 0 1 0 2z"/>
  <path d="M16 8A8 8 0 1 1 0 8a8 8 0 0 1 16 0zM4 8a4 4 0 1 0 8 0 4 4 0 0 0-8 0z"/>
</svg>